<svg id="visual" viewBox="0 0 960 540" width="960" height="540" xmlns="http://www.w3.org/2000/svg" xmlns:xlink="http://www.w3.org/1999/xlink" version="1.1"><rect x="0" y="0" width="960" height="540" fill="#00557a"></rect><defs><linearGradient id="grad1_0" x1="43.8%" y1="0%" x2="100%" y2="100%"><stop offset="14.444444444444446%" stop-color="#00557a" stop-opacity="1"></stop><stop offset="85.55555555555554%" stop-color="#00557a" stop-opacity="1"></stop></linearGradient></defs><defs><linearGradient id="grad2_0" x1="0%" y1="0%" x2="56.3%" y2="100%"><stop offset="14.444444444444446%" stop-color="#00557a" stop-opacity="1"></stop><stop offset="85.55555555555554%" stop-color="#00557a" stop-opacity="1"></stop></linearGradient></defs><g transform="translate(960, 0)"><path d="M0 270C-39.4 249.8 -78.7 229.6 -121 209.6C-163.3 189.6 -208.5 169.9 -233.8 135C-259.1 100.1 -264.6 50.1 -270 0L0 0Z" fill="#009bdf"></path></g><g transform="translate(0, 540)"><path d="M0 -270C43.9 -257.6 87.8 -245.3 129.5 -224.3C171.2 -203.3 210.8 -173.8 233.8 -135C256.9 -96.2 263.4 -48.1 270 0L0 0Z" fill="#009bdf"></path></g></svg>