<svg id="visual" viewBox="0 0 960 540" width="960" height="540" xmlns="http://www.w3.org/2000/svg" xmlns:xlink="http://www.w3.org/1999/xlink" version="1.1"><rect x="0" y="0" width="960" height="540" fill="#00557a"></rect><path d="M0 446L16 440.3C32 434.7 64 423.3 96 425.8C128 428.3 160 444.7 192 449.7C224 454.7 256 448.3 288 440.8C320 433.3 352 424.7 384 431.2C416 437.7 448 459.3 480 462.2C512 465 544 449 576 448C608 447 640 461 672 452.8C704 444.7 736 414.3 768 399C800 383.7 832 383.3 864 395.5C896 407.7 928 432.3 944 444.7L960 457L960 541L944 541C928 541 896 541 864 541C832 541 800 541 768 541C736 541 704 541 672 541C640 541 608 541 576 541C544 541 512 541 480 541C448 541 416 541 384 541C352 541 320 541 288 541C256 541 224 541 192 541C160 541 128 541 96 541C64 541 32 541 16 541L0 541Z" fill="#009bdf" stroke-linecap="round" stroke-linejoin="miter"></path></svg>