<svg id="visual" viewBox="0 0 960 540" width="960" height="540" xmlns="http://www.w3.org/2000/svg" xmlns:xlink="http://www.w3.org/1999/xlink" version="1.1"><rect x="0" y="0" width="960" height="540" fill="#00557a"></rect><path d="M0 171L22.8 169.5C45.7 168 91.3 165 137 161.2C182.7 157.3 228.3 152.7 274 146.5C319.7 140.3 365.3 132.7 411.2 143C457 153.3 503 181.7 548.8 197.2C594.7 212.7 640.3 215.3 686 208.2C731.7 201 777.3 184 823 175.3C868.7 166.7 914.3 166.3 937.2 166.2L960 166L960 541L937.2 541C914.3 541 868.7 541 823 541C777.3 541 731.7 541 686 541C640.3 541 594.7 541 548.8 541C503 541 457 541 411.2 541C365.3 541 319.7 541 274 541C228.3 541 182.7 541 137 541C91.3 541 45.7 541 22.8 541L0 541Z" fill="#00557a"></path><path d="M0 147L22.8 153.7C45.7 160.3 91.3 173.7 137 176.3C182.7 179 228.3 171 274 162.2C319.7 153.3 365.3 143.7 411.2 141.2C457 138.7 503 143.3 548.8 148C594.7 152.7 640.3 157.3 686 175.5C731.7 193.7 777.3 225.3 823 244.8C868.7 264.3 914.3 271.7 937.2 275.3L960 279L960 541L937.2 541C914.3 541 868.7 541 823 541C777.3 541 731.7 541 686 541C640.3 541 594.7 541 548.8 541C503 541 457 541 411.2 541C365.3 541 319.7 541 274 541C228.3 541 182.7 541 137 541C91.3 541 45.7 541 22.8 541L0 541Z" fill="#005f88"></path><path d="M0 197L22.8 201.3C45.7 205.7 91.3 214.3 137 219.5C182.7 224.7 228.3 226.3 274 222.3C319.7 218.3 365.3 208.7 411.2 209.5C457 210.3 503 221.7 548.8 235.7C594.7 249.7 640.3 266.3 686 278.7C731.7 291 777.3 299 823 298.5C868.7 298 914.3 289 937.2 284.5L960 280L960 541L937.2 541C914.3 541 868.7 541 823 541C777.3 541 731.7 541 686 541C640.3 541 594.7 541 548.8 541C503 541 457 541 411.2 541C365.3 541 319.7 541 274 541C228.3 541 182.7 541 137 541C91.3 541 45.7 541 22.8 541L0 541Z" fill="#006896"></path><path d="M0 288L22.8 281C45.7 274 91.3 260 137 261.7C182.7 263.3 228.3 280.7 274 298.3C319.7 316 365.3 334 411.2 343.2C457 352.3 503 352.7 548.8 334C594.7 315.3 640.3 277.7 686 278.2C731.7 278.7 777.3 317.3 823 331.8C868.7 346.3 914.3 336.7 937.2 331.8L960 327L960 541L937.2 541C914.3 541 868.7 541 823 541C777.3 541 731.7 541 686 541C640.3 541 594.7 541 548.8 541C503 541 457 541 411.2 541C365.3 541 319.7 541 274 541C228.3 541 182.7 541 137 541C91.3 541 45.7 541 22.8 541L0 541Z" fill="#0072a4"></path><path d="M0 353L22.8 346.8C45.7 340.7 91.3 328.3 137 323C182.7 317.7 228.3 319.3 274 331.5C319.7 343.7 365.3 366.3 411.2 376.5C457 386.7 503 384.3 548.8 384C594.7 383.7 640.3 385.3 686 372.3C731.7 359.3 777.3 331.7 823 320.5C868.7 309.3 914.3 314.7 937.2 317.3L960 320L960 541L937.2 541C914.3 541 868.7 541 823 541C777.3 541 731.7 541 686 541C640.3 541 594.7 541 548.8 541C503 541 457 541 411.2 541C365.3 541 319.7 541 274 541C228.3 541 182.7 541 137 541C91.3 541 45.7 541 22.8 541L0 541Z" fill="#007cb2"></path><path d="M0 425L22.8 415.8C45.7 406.7 91.3 388.3 137 382.3C182.7 376.3 228.3 382.7 274 378.5C319.7 374.3 365.3 359.7 411.2 365.8C457 372 503 399 548.8 402.8C594.7 406.7 640.3 387.3 686 375.8C731.7 364.3 777.3 360.7 823 360.8C868.7 361 914.3 365 937.2 367L960 369L960 541L937.2 541C914.3 541 868.7 541 823 541C777.3 541 731.7 541 686 541C640.3 541 594.7 541 548.8 541C503 541 457 541 411.2 541C365.3 541 319.7 541 274 541C228.3 541 182.7 541 137 541C91.3 541 45.7 541 22.8 541L0 541Z" fill="#0086c1"></path><path d="M0 459L22.8 455.8C45.7 452.7 91.3 446.3 137 437.7C182.7 429 228.3 418 274 415.7C319.7 413.3 365.3 419.7 411.2 426.2C457 432.7 503 439.3 548.8 444.3C594.7 449.3 640.3 452.7 686 456.5C731.7 460.3 777.3 464.7 823 458.8C868.7 453 914.3 437 937.2 429L960 421L960 541L937.2 541C914.3 541 868.7 541 823 541C777.3 541 731.7 541 686 541C640.3 541 594.7 541 548.8 541C503 541 457 541 411.2 541C365.3 541 319.7 541 274 541C228.3 541 182.7 541 137 541C91.3 541 45.7 541 22.8 541L0 541Z" fill="#0091d0"></path><path d="M0 496L22.8 492C45.7 488 91.3 480 137 477.5C182.7 475 228.3 478 274 474.5C319.7 471 365.3 461 411.2 462.8C457 464.7 503 478.3 548.8 485.8C594.7 493.3 640.3 494.7 686 495.5C731.7 496.3 777.3 496.7 823 493.7C868.7 490.7 914.3 484.3 937.2 481.2L960 478L960 541L937.2 541C914.3 541 868.7 541 823 541C777.3 541 731.7 541 686 541C640.3 541 594.7 541 548.8 541C503 541 457 541 411.2 541C365.3 541 319.7 541 274 541C228.3 541 182.7 541 137 541C91.3 541 45.7 541 22.8 541L0 541Z" fill="#009bdf"></path></svg>