<svg id="visual" viewBox="0 0 960 540" width="960" height="540" xmlns="http://www.w3.org/2000/svg" xmlns:xlink="http://www.w3.org/1999/xlink" version="1.1"><rect x="0" y="0" width="960" height="540" fill="#00557a"></rect><g fill="#009bdf"><circle r="65" cx="608" cy="49"></circle><circle r="13" cx="225" cy="266"></circle><circle r="26" cx="859" cy="539"></circle><circle r="28" cx="224" cy="434"></circle><circle r="41" cx="860" cy="62"></circle><circle r="58" cx="440" cy="10"></circle><circle r="63" cx="69" cy="120"></circle><circle r="31" cx="732" cy="411"></circle><circle r="57" cx="361" cy="243"></circle><circle r="48" cx="402" cy="436"></circle><circle r="56" cx="793" cy="274"></circle><circle r="51" cx="533" cy="464"></circle><circle r="36" cx="540" cy="259"></circle><circle r="51" cx="957" cy="247"></circle><circle r="55" cx="231" cy="91"></circle><circle r="31" cx="50" cy="371"></circle><circle r="25" cx="491" cy="132"></circle><circle r="27" cx="687" cy="189"></circle><circle r="61" cx="742" cy="3"></circle><circle r="53" cx="942" cy="402"></circle><circle r="25" cx="640" cy="535"></circle><circle r="32" cx="6" cy="536"></circle><circle r="32" cx="5" cy="241"></circle><circle r="16" cx="305" cy="535"></circle></g></svg>