<svg id="visual" viewBox="0 0 960 540" width="960" height="540" xmlns="http://www.w3.org/2000/svg" xmlns:xlink="http://www.w3.org/1999/xlink" version="1.1"><rect width="960" height="540" fill="#00557a"></rect><g><g transform="translate(842 465)"><path d="M0 -23.7L10.3 -21.3L18.5 -14.8L23.1 -5.3L23.1 5.3L18.5 14.8L10.3 21.3L0 23.7L-10.3 21.3L-18.5 14.8L-23.1 5.3L-23.1 -5.3L-18.5 -14.8L-10.3 -21.3Z" fill="#009bdf"></path></g><g transform="translate(252 32)"><path d="M0 -10L4.3 -9L7.8 -6.2L9.7 -2.2L9.7 2.2L7.8 6.2L4.3 9L0 10L-4.3 9L-7.8 6.2L-9.7 2.2L-9.7 -2.2L-7.8 -6.2L-4.3 -9Z" fill="#009bdf"></path></g><g transform="translate(693 335)"><path d="M0 -8L3.5 -7.2L6.3 -5L7.8 -1.8L7.8 1.8L6.3 5L3.5 7.2L0 8L-3.5 7.2L-6.3 5L-7.8 1.8L-7.8 -1.8L-6.3 -5L-3.5 -7.2Z" fill="#009bdf"></path></g><g transform="translate(213 320)"><path d="M0 -17L7.4 -15.3L13.3 -10.6L16.6 -3.8L16.6 3.8L13.3 10.6L7.4 15.3L0 17L-7.4 15.3L-13.3 10.6L-16.6 3.8L-16.6 -3.8L-13.3 -10.6L-7.4 -15.3Z" fill="#009bdf"></path></g><g transform="translate(629 149)"><path d="M0 -16L6.9 -14.4L12.5 -10L15.6 -3.6L15.6 3.6L12.5 10L6.9 14.4L0 16L-6.9 14.4L-12.5 10L-15.6 3.6L-15.6 -3.6L-12.5 -10L-6.9 -14.4Z" fill="#009bdf"></path></g><g transform="translate(753 368)"><path d="M0 -18L7.8 -16.2L14.1 -11.2L17.5 -4L17.5 4L14.1 11.2L7.8 16.2L0 18L-7.8 16.2L-14.1 11.2L-17.5 4L-17.5 -4L-14.1 -11.2L-7.8 -16.2Z" fill="#009bdf"></path></g><g transform="translate(366 163)"><path d="M0 -12L5.2 -10.8L9.4 -7.5L11.7 -2.7L11.7 2.7L9.4 7.5L5.2 10.8L0 12L-5.2 10.8L-9.4 7.5L-11.7 2.7L-11.7 -2.7L-9.4 -7.5L-5.2 -10.8Z" fill="#009bdf"></path></g><g transform="translate(99 357)"><path d="M0 -19L8.2 -17.1L14.9 -11.8L18.5 -4.2L18.5 4.2L14.9 11.8L8.2 17.1L0 19L-8.2 17.1L-14.9 11.8L-18.5 4.2L-18.5 -4.2L-14.9 -11.8L-8.2 -17.1Z" fill="#009bdf"></path></g><g transform="translate(50 135)"><path d="M0 -18L7.8 -16.2L14.1 -11.2L17.5 -4L17.5 4L14.1 11.2L7.8 16.2L0 18L-7.8 16.2L-14.1 11.2L-17.5 4L-17.5 -4L-14.1 -11.2L-7.8 -16.2Z" fill="#009bdf"></path></g><g transform="translate(558 463)"><path d="M0 -11L4.8 -9.9L8.6 -6.9L10.7 -2.4L10.7 2.4L8.6 6.9L4.8 9.9L0 11L-4.8 9.9L-8.6 6.9L-10.7 2.4L-10.7 -2.4L-8.6 -6.9L-4.8 -9.9Z" fill="#009bdf"></path></g><g transform="translate(674 26)"><path d="M0 -12L5.2 -10.8L9.4 -7.5L11.7 -2.7L11.7 2.7L9.4 7.5L5.2 10.8L0 12L-5.2 10.8L-9.4 7.5L-11.7 2.7L-11.7 -2.7L-9.4 -7.5L-5.2 -10.8Z" fill="#009bdf"></path></g><g transform="translate(629 523)"><path d="M0 -16L6.9 -14.4L12.5 -10L15.6 -3.6L15.6 3.6L12.5 10L6.9 14.4L0 16L-6.9 14.4L-12.5 10L-15.6 3.6L-15.6 -3.6L-12.5 -10L-6.9 -14.4Z" fill="#009bdf"></path></g><g transform="translate(59 432)"><path d="M0 -18L7.8 -16.2L14.1 -11.2L17.5 -4L17.5 4L14.1 11.2L7.8 16.2L0 18L-7.8 16.2L-14.1 11.2L-17.5 4L-17.5 -4L-14.1 -11.2L-7.8 -16.2Z" fill="#009bdf"></path></g><g transform="translate(751 314)"><path d="M0 -17L7.4 -15.3L13.3 -10.6L16.6 -3.8L16.6 3.8L13.3 10.6L7.4 15.3L0 17L-7.4 15.3L-13.3 10.6L-16.6 3.8L-16.6 -3.8L-13.3 -10.6L-7.4 -15.3Z" fill="#009bdf"></path></g><g transform="translate(651 432)"><path d="M0 -18L7.8 -16.2L14.1 -11.2L17.5 -4L17.5 4L14.1 11.2L7.8 16.2L0 18L-7.8 16.2L-14.1 11.2L-17.5 4L-17.5 -4L-14.1 -11.2L-7.8 -16.2Z" fill="#009bdf"></path></g><g transform="translate(850 177)"><path d="M0 -7L3 -6.3L5.5 -4.4L6.8 -1.6L6.8 1.6L5.5 4.4L3 6.3L0 7L-3 6.3L-5.5 4.4L-6.8 1.6L-6.8 -1.6L-5.5 -4.4L-3 -6.3Z" fill="#009bdf"></path></g><g transform="translate(267 376)"><path d="M0 -19L8.2 -17.1L14.9 -11.8L18.5 -4.2L18.5 4.2L14.9 11.8L8.2 17.1L0 19L-8.2 17.1L-14.9 11.8L-18.5 4.2L-18.5 -4.2L-14.9 -11.8L-8.2 -17.1Z" fill="#009bdf"></path></g><g transform="translate(914 513)"><path d="M0 -21L9.1 -18.9L16.4 -13.1L20.5 -4.7L20.5 4.7L16.4 13.1L9.1 18.9L0 21L-9.1 18.9L-16.4 13.1L-20.5 4.7L-20.5 -4.7L-16.4 -13.1L-9.1 -18.9Z" fill="#009bdf"></path></g><g transform="translate(804 35)"><path d="M0 -22L9.5 -19.8L17.2 -13.7L21.4 -4.9L21.4 4.9L17.2 13.7L9.5 19.8L0 22L-9.5 19.8L-17.2 13.7L-21.4 4.9L-21.4 -4.9L-17.2 -13.7L-9.5 -19.8Z" fill="#009bdf"></path></g><g transform="translate(567 305)"><path d="M0 -18L7.8 -16.2L14.1 -11.2L17.5 -4L17.5 4L14.1 11.2L7.8 16.2L0 18L-7.8 16.2L-14.1 11.2L-17.5 4L-17.5 -4L-14.1 -11.2L-7.8 -16.2Z" fill="#009bdf"></path></g><g transform="translate(573 535)"><path d="M0 -21L9.1 -18.9L16.4 -13.1L20.5 -4.7L20.5 4.7L16.4 13.1L9.1 18.9L0 21L-9.1 18.9L-16.4 13.1L-20.5 4.7L-20.5 -4.7L-16.4 -13.1L-9.1 -18.9Z" fill="#009bdf"></path></g><g transform="translate(484 530)"><path d="M0 -22L9.5 -19.8L17.2 -13.7L21.4 -4.9L21.4 4.9L17.2 13.7L9.5 19.8L0 22L-9.5 19.8L-17.2 13.7L-21.4 4.9L-21.4 -4.9L-17.2 -13.7L-9.5 -19.8Z" fill="#009bdf"></path></g><g transform="translate(173 410)"><path d="M0 -14L6.1 -12.6L10.9 -8.7L13.6 -3.1L13.6 3.1L10.9 8.7L6.1 12.6L0 14L-6.1 12.6L-10.9 8.7L-13.6 3.1L-13.6 -3.1L-10.9 -8.7L-6.1 -12.6Z" fill="#009bdf"></path></g><g transform="translate(368 539)"><path d="M0 -16L6.9 -14.4L12.5 -10L15.6 -3.6L15.6 3.6L12.5 10L6.9 14.4L0 16L-6.9 14.4L-12.5 10L-15.6 3.6L-15.6 -3.6L-12.5 -10L-6.9 -14.4Z" fill="#009bdf"></path></g><g transform="translate(217 76)"><path d="M0 -10L4.3 -9L7.8 -6.2L9.7 -2.2L9.7 2.2L7.8 6.2L4.3 9L0 10L-4.3 9L-7.8 6.2L-9.7 2.2L-9.7 -2.2L-7.8 -6.2L-4.3 -9Z" fill="#009bdf"></path></g><g transform="translate(751 90)"><path d="M0 -5L2.2 -4.5L3.9 -3.1L4.9 -1.1L4.9 1.1L3.9 3.1L2.2 4.5L0 5L-2.2 4.5L-3.9 3.1L-4.9 1.1L-4.9 -1.1L-3.9 -3.1L-2.2 -4.5Z" fill="#009bdf"></path></g><g transform="translate(602 239)"><path d="M0 -18L7.8 -16.2L14.1 -11.2L17.5 -4L17.5 4L14.1 11.2L7.8 16.2L0 18L-7.8 16.2L-14.1 11.2L-17.5 4L-17.5 -4L-14.1 -11.2L-7.8 -16.2Z" fill="#009bdf"></path></g><g transform="translate(446 309)"><path d="M0 -16L6.9 -14.4L12.5 -10L15.6 -3.6L15.6 3.6L12.5 10L6.9 14.4L0 16L-6.9 14.4L-12.5 10L-15.6 3.6L-15.6 -3.6L-12.5 -10L-6.9 -14.4Z" fill="#009bdf"></path></g><g transform="translate(116 514)"><path d="M0 -20L8.7 -18L15.6 -12.5L19.5 -4.5L19.5 4.5L15.6 12.5L8.7 18L0 20L-8.7 18L-15.6 12.5L-19.5 4.5L-19.5 -4.5L-15.6 -12.5L-8.7 -18Z" fill="#009bdf"></path></g><g transform="translate(330 280)"><path d="M0 -9L3.9 -8.1L7 -5.6L8.8 -2L8.8 2L7 5.6L3.9 8.1L0 9L-3.9 8.1L-7 5.6L-8.8 2L-8.8 -2L-7 -5.6L-3.9 -8.1Z" fill="#009bdf"></path></g><g transform="translate(760 524)"><path d="M0 -12L5.2 -10.8L9.4 -7.5L11.7 -2.7L11.7 2.7L9.4 7.5L5.2 10.8L0 12L-5.2 10.8L-9.4 7.5L-11.7 2.7L-11.7 -2.7L-9.4 -7.5L-5.2 -10.8Z" fill="#009bdf"></path></g><g transform="translate(251 443)"><path d="M0 -9L3.9 -8.1L7 -5.6L8.8 -2L8.8 2L7 5.6L3.9 8.1L0 9L-3.9 8.1L-7 5.6L-8.8 2L-8.8 -2L-7 -5.6L-3.9 -8.1Z" fill="#009bdf"></path></g><g transform="translate(360 327)"><path d="M0 -6L2.6 -5.4L4.7 -3.7L5.8 -1.3L5.8 1.3L4.7 3.7L2.6 5.4L0 6L-2.6 5.4L-4.7 3.7L-5.8 1.3L-5.8 -1.3L-4.7 -3.7L-2.6 -5.4Z" fill="#009bdf"></path></g><g transform="translate(371 461)"><path d="M0 -11L4.8 -9.9L8.6 -6.9L10.7 -2.4L10.7 2.4L8.6 6.9L4.8 9.9L0 11L-4.8 9.9L-8.6 6.9L-10.7 2.4L-10.7 -2.4L-8.6 -6.9L-4.8 -9.9Z" fill="#009bdf"></path></g><g transform="translate(210 233)"><path d="M0 -18L7.8 -16.2L14.1 -11.2L17.5 -4L17.5 4L14.1 11.2L7.8 16.2L0 18L-7.8 16.2L-14.1 11.2L-17.5 4L-17.5 -4L-14.1 -11.2L-7.8 -16.2Z" fill="#009bdf"></path></g><g transform="translate(150 14)"><path d="M0 -17L7.4 -15.3L13.3 -10.6L16.6 -3.8L16.6 3.8L13.3 10.6L7.4 15.3L0 17L-7.4 15.3L-13.3 10.6L-16.6 3.8L-16.6 -3.8L-13.3 -10.6L-7.4 -15.3Z" fill="#009bdf"></path></g><g transform="translate(445 2)"><path d="M0 -14L6.1 -12.6L10.9 -8.7L13.6 -3.1L13.6 3.1L10.9 8.7L6.1 12.6L0 14L-6.1 12.6L-10.9 8.7L-13.6 3.1L-13.6 -3.1L-10.9 -8.7L-6.1 -12.6Z" fill="#009bdf"></path></g><g transform="translate(268 233)"><path d="M0 -13L5.6 -11.7L10.2 -8.1L12.7 -2.9L12.7 2.9L10.2 8.1L5.6 11.7L0 13L-5.6 11.7L-10.2 8.1L-12.7 2.9L-12.7 -2.9L-10.2 -8.1L-5.6 -11.7Z" fill="#009bdf"></path></g><g transform="translate(417 250)"><path d="M0 -9L3.9 -8.1L7 -5.6L8.8 -2L8.8 2L7 5.6L3.9 8.1L0 9L-3.9 8.1L-7 5.6L-8.8 2L-8.8 -2L-7 -5.6L-3.9 -8.1Z" fill="#009bdf"></path></g><g transform="translate(88 10)"><path d="M0 -13L5.6 -11.7L10.2 -8.1L12.7 -2.9L12.7 2.9L10.2 8.1L5.6 11.7L0 13L-5.6 11.7L-10.2 8.1L-12.7 2.9L-12.7 -2.9L-10.2 -8.1L-5.6 -11.7Z" fill="#009bdf"></path></g><g transform="translate(356 388)"><path d="M0 -8L3.5 -7.2L6.3 -5L7.8 -1.8L7.8 1.8L6.3 5L3.5 7.2L0 8L-3.5 7.2L-6.3 5L-7.8 1.8L-7.8 -1.8L-6.3 -5L-3.5 -7.2Z" fill="#009bdf"></path></g><g transform="translate(872 241)"><path d="M0 -15L6.5 -13.5L11.7 -9.4L14.6 -3.3L14.6 3.3L11.7 9.4L6.5 13.5L0 15L-6.5 13.5L-11.7 9.4L-14.6 3.3L-14.6 -3.3L-11.7 -9.4L-6.5 -13.5Z" fill="#009bdf"></path></g><g transform="translate(32 55)"><path d="M0 -9L3.9 -8.1L7 -5.6L8.8 -2L8.8 2L7 5.6L3.9 8.1L0 9L-3.9 8.1L-7 5.6L-8.8 2L-8.8 -2L-7 -5.6L-3.9 -8.1Z" fill="#009bdf"></path></g><g transform="translate(3 6)"><path d="M0 -10L4.3 -9L7.8 -6.2L9.7 -2.2L9.7 2.2L7.8 6.2L4.3 9L0 10L-4.3 9L-7.8 6.2L-9.7 2.2L-9.7 -2.2L-7.8 -6.2L-4.3 -9Z" fill="#009bdf"></path></g><g transform="translate(489 192)"><path d="M0 -6L2.6 -5.4L4.7 -3.7L5.8 -1.3L5.8 1.3L4.7 3.7L2.6 5.4L0 6L-2.6 5.4L-4.7 3.7L-5.8 1.3L-5.8 -1.3L-4.7 -3.7L-2.6 -5.4Z" fill="#009bdf"></path></g><g transform="translate(908 146)"><path d="M0 -6L2.6 -5.4L4.7 -3.7L5.8 -1.3L5.8 1.3L4.7 3.7L2.6 5.4L0 6L-2.6 5.4L-4.7 3.7L-5.8 1.3L-5.8 -1.3L-4.7 -3.7L-2.6 -5.4Z" fill="#009bdf"></path></g><g transform="translate(823 536)"><path d="M0 -19L8.2 -17.1L14.9 -11.8L18.5 -4.2L18.5 4.2L14.9 11.8L8.2 17.1L0 19L-8.2 17.1L-14.9 11.8L-18.5 4.2L-18.5 -4.2L-14.9 -11.8L-8.2 -17.1Z" fill="#009bdf"></path></g><g transform="translate(469 136)"><path d="M0 -9L3.9 -8.1L7 -5.6L8.8 -2L8.8 2L7 5.6L3.9 8.1L0 9L-3.9 8.1L-7 5.6L-8.8 2L-8.8 -2L-7 -5.6L-3.9 -8.1Z" fill="#009bdf"></path></g><g transform="translate(570 148)"><path d="M0 -16L6.9 -14.4L12.5 -10L15.6 -3.6L15.6 3.6L12.5 10L6.9 14.4L0 16L-6.9 14.4L-12.5 10L-15.6 3.6L-15.6 -3.6L-12.5 -10L-6.9 -14.4Z" fill="#009bdf"></path></g><g transform="translate(204 123)"><path d="M0 -10L4.3 -9L7.8 -6.2L9.7 -2.2L9.7 2.2L7.8 6.2L4.3 9L0 10L-4.3 9L-7.8 6.2L-9.7 2.2L-9.7 -2.2L-7.8 -6.2L-4.3 -9Z" fill="#009bdf"></path></g><g transform="translate(282 511)"><path d="M0 -11L4.8 -9.9L8.6 -6.9L10.7 -2.4L10.7 2.4L8.6 6.9L4.8 9.9L0 11L-4.8 9.9L-8.6 6.9L-10.7 2.4L-10.7 -2.4L-8.6 -6.9L-4.8 -9.9Z" fill="#009bdf"></path></g><g transform="translate(626 376)"><path d="M0 -7L3 -6.3L5.5 -4.4L6.8 -1.6L6.8 1.6L5.5 4.4L3 6.3L0 7L-3 6.3L-5.5 4.4L-6.8 1.6L-6.8 -1.6L-5.5 -4.4L-3 -6.3Z" fill="#009bdf"></path></g><g transform="translate(116 207)"><path d="M0 -20L8.7 -18L15.6 -12.5L19.5 -4.5L19.5 4.5L15.6 12.5L8.7 18L0 20L-8.7 18L-15.6 12.5L-19.5 4.5L-19.5 -4.5L-15.6 -12.5L-8.7 -18Z" fill="#009bdf"></path></g><g transform="translate(347 210)"><path d="M0 -5L2.2 -4.5L3.9 -3.1L4.9 -1.1L4.9 1.1L3.9 3.1L2.2 4.5L0 5L-2.2 4.5L-3.9 3.1L-4.9 1.1L-4.9 -1.1L-3.9 -3.1L-2.2 -4.5Z" fill="#009bdf"></path></g><g transform="translate(958 321)"><path d="M0 -5L2.2 -4.5L3.9 -3.1L4.9 -1.1L4.9 1.1L3.9 3.1L2.2 4.5L0 5L-2.2 4.5L-3.9 3.1L-4.9 1.1L-4.9 -1.1L-3.9 -3.1L-2.2 -4.5Z" fill="#009bdf"></path></g><g transform="translate(816 360)"><path d="M0 -6L2.6 -5.4L4.7 -3.7L5.8 -1.3L5.8 1.3L4.7 3.7L2.6 5.4L0 6L-2.6 5.4L-4.7 3.7L-5.8 1.3L-5.8 -1.3L-4.7 -3.7L-2.6 -5.4Z" fill="#009bdf"></path></g><g transform="translate(368 2)"><path d="M0 -17L7.4 -15.3L13.3 -10.6L16.6 -3.8L16.6 3.8L13.3 10.6L7.4 15.3L0 17L-7.4 15.3L-13.3 10.6L-16.6 3.8L-16.6 -3.8L-13.3 -10.6L-7.4 -15.3Z" fill="#009bdf"></path></g><g transform="translate(421 494)"><path d="M0 -8L3.5 -7.2L6.3 -5L7.8 -1.8L7.8 1.8L6.3 5L3.5 7.2L0 8L-3.5 7.2L-6.3 5L-7.8 1.8L-7.8 -1.8L-6.3 -5L-3.5 -7.2Z" fill="#009bdf"></path></g><g transform="translate(792 461)"><path d="M0 -11L4.8 -9.9L8.6 -6.9L10.7 -2.4L10.7 2.4L8.6 6.9L4.8 9.9L0 11L-4.8 9.9L-8.6 6.9L-10.7 2.4L-10.7 -2.4L-8.6 -6.9L-4.8 -9.9Z" fill="#009bdf"></path></g><g transform="translate(59 230)"><path d="M0 -11L4.8 -9.9L8.6 -6.9L10.7 -2.4L10.7 2.4L8.6 6.9L4.8 9.9L0 11L-4.8 9.9L-8.6 6.9L-10.7 2.4L-10.7 -2.4L-8.6 -6.9L-4.8 -9.9Z" fill="#009bdf"></path></g><g transform="translate(299 465)"><path d="M0 -22L9.5 -19.8L17.2 -13.7L21.4 -4.9L21.4 4.9L17.2 13.7L9.5 19.8L0 22L-9.5 19.8L-17.2 13.7L-21.4 4.9L-21.4 -4.9L-17.2 -13.7L-9.5 -19.8Z" fill="#009bdf"></path></g><g transform="translate(954 3)"><path d="M0 -15L6.5 -13.5L11.7 -9.4L14.6 -3.3L14.6 3.3L11.7 9.4L6.5 13.5L0 15L-6.5 13.5L-11.7 9.4L-14.6 3.3L-14.6 -3.3L-11.7 -9.4L-6.5 -13.5Z" fill="#009bdf"></path></g><g transform="translate(768 196)"><path d="M0 -6L2.6 -5.4L4.7 -3.7L5.8 -1.3L5.8 1.3L4.7 3.7L2.6 5.4L0 6L-2.6 5.4L-4.7 3.7L-5.8 1.3L-5.8 -1.3L-4.7 -3.7L-2.6 -5.4Z" fill="#009bdf"></path></g><g transform="translate(215 2)"><path d="M0 -8L3.5 -7.2L6.3 -5L7.8 -1.8L7.8 1.8L6.3 5L3.5 7.2L0 8L-3.5 7.2L-6.3 5L-7.8 1.8L-7.8 -1.8L-6.3 -5L-3.5 -7.2Z" fill="#009bdf"></path></g><g transform="translate(423 65)"><path d="M0 -21L9.1 -18.9L16.4 -13.1L20.5 -4.7L20.5 4.7L16.4 13.1L9.1 18.9L0 21L-9.1 18.9L-16.4 13.1L-20.5 4.7L-20.5 -4.7L-16.4 -13.1L-9.1 -18.9Z" fill="#009bdf"></path></g><g transform="translate(550 13)"><path d="M0 -9L3.9 -8.1L7 -5.6L8.8 -2L8.8 2L7 5.6L3.9 8.1L0 9L-3.9 8.1L-7 5.6L-8.8 2L-8.8 -2L-7 -5.6L-3.9 -8.1Z" fill="#009bdf"></path></g><g transform="translate(712 502)"><path d="M0 -8L3.5 -7.2L6.3 -5L7.8 -1.8L7.8 1.8L6.3 5L3.5 7.2L0 8L-3.5 7.2L-6.3 5L-7.8 1.8L-7.8 -1.8L-6.3 -5L-3.5 -7.2Z" fill="#009bdf"></path></g><g transform="translate(907 361)"><path d="M0 -6L2.6 -5.4L4.7 -3.7L5.8 -1.3L5.8 1.3L4.7 3.7L2.6 5.4L0 6L-2.6 5.4L-4.7 3.7L-5.8 1.3L-5.8 -1.3L-4.7 -3.7L-2.6 -5.4Z" fill="#009bdf"></path></g><g transform="translate(532 245)"><path d="M0 -10L4.3 -9L7.8 -6.2L9.7 -2.2L9.7 2.2L7.8 6.2L4.3 9L0 10L-4.3 9L-7.8 6.2L-9.7 2.2L-9.7 -2.2L-7.8 -6.2L-4.3 -9Z" fill="#009bdf"></path></g><g transform="translate(841 301)"><path d="M0 -11L4.8 -9.9L8.6 -6.9L10.7 -2.4L10.7 2.4L8.6 6.9L4.8 9.9L0 11L-4.8 9.9L-8.6 6.9L-10.7 2.4L-10.7 -2.4L-8.6 -6.9L-4.8 -9.9Z" fill="#009bdf"></path></g><g transform="translate(172 502)"><path d="M0 -17L7.4 -15.3L13.3 -10.6L16.6 -3.8L16.6 3.8L13.3 10.6L7.4 15.3L0 17L-7.4 15.3L-13.3 10.6L-16.6 3.8L-16.6 -3.8L-13.3 -10.6L-7.4 -15.3Z" fill="#009bdf"></path></g><g transform="translate(119 158)"><path d="M0 -8L3.5 -7.2L6.3 -5L7.8 -1.8L7.8 1.8L6.3 5L3.5 7.2L0 8L-3.5 7.2L-6.3 5L-7.8 1.8L-7.8 -1.8L-6.3 -5L-3.5 -7.2Z" fill="#009bdf"></path></g><g transform="translate(395 417)"><path d="M0 -16L6.9 -14.4L12.5 -10L15.6 -3.6L15.6 3.6L12.5 10L6.9 14.4L0 16L-6.9 14.4L-12.5 10L-15.6 3.6L-15.6 -3.6L-12.5 -10L-6.9 -14.4Z" fill="#009bdf"></path></g><g transform="translate(147 92)"><path d="M0 -10L4.3 -9L7.8 -6.2L9.7 -2.2L9.7 2.2L7.8 6.2L4.3 9L0 10L-4.3 9L-7.8 6.2L-9.7 2.2L-9.7 -2.2L-7.8 -6.2L-4.3 -9Z" fill="#009bdf"></path></g><g transform="translate(132 271)"><path d="M0 -21L9.1 -18.9L16.4 -13.1L20.5 -4.7L20.5 4.7L16.4 13.1L9.1 18.9L0 21L-9.1 18.9L-16.4 13.1L-20.5 4.7L-20.5 -4.7L-16.4 -13.1L-9.1 -18.9Z" fill="#009bdf"></path></g><g transform="translate(931 432)"><path d="M0 -11L4.8 -9.9L8.6 -6.9L10.7 -2.4L10.7 2.4L8.6 6.9L4.8 9.9L0 11L-4.8 9.9L-8.6 6.9L-10.7 2.4L-10.7 -2.4L-8.6 -6.9L-4.8 -9.9Z" fill="#009bdf"></path></g><g transform="translate(78 70)"><path d="M0 -10L4.3 -9L7.8 -6.2L9.7 -2.2L9.7 2.2L7.8 6.2L4.3 9L0 10L-4.3 9L-7.8 6.2L-9.7 2.2L-9.7 -2.2L-7.8 -6.2L-4.3 -9Z" fill="#009bdf"></path></g><g transform="translate(794 138)"><path d="M0 -9L3.9 -8.1L7 -5.6L8.8 -2L8.8 2L7 5.6L3.9 8.1L0 9L-3.9 8.1L-7 5.6L-8.8 2L-8.8 -2L-7 -5.6L-3.9 -8.1Z" fill="#009bdf"></path></g><g transform="translate(704 436)"><path d="M0 -8L3.5 -7.2L6.3 -5L7.8 -1.8L7.8 1.8L6.3 5L3.5 7.2L0 8L-3.5 7.2L-6.3 5L-7.8 1.8L-7.8 -1.8L-6.3 -5L-3.5 -7.2Z" fill="#009bdf"></path></g><g transform="translate(49 339)"><path d="M0 -10L4.3 -9L7.8 -6.2L9.7 -2.2L9.7 2.2L7.8 6.2L4.3 9L0 10L-4.3 9L-7.8 6.2L-9.7 2.2L-9.7 -2.2L-7.8 -6.2L-4.3 -9Z" fill="#009bdf"></path></g><g transform="translate(860 45)"><path d="M0 -9L3.9 -8.1L7 -5.6L8.8 -2L8.8 2L7 5.6L3.9 8.1L0 9L-3.9 8.1L-7 5.6L-8.8 2L-8.8 -2L-7 -5.6L-3.9 -8.1Z" fill="#009bdf"></path></g><g transform="translate(70 538)"><path d="M0 -18L7.8 -16.2L14.1 -11.2L17.5 -4L17.5 4L14.1 11.2L7.8 16.2L0 18L-7.8 16.2L-14.1 11.2L-17.5 4L-17.5 -4L-14.1 -11.2L-7.8 -16.2Z" fill="#009bdf"></path></g><g transform="translate(114 424)"><path d="M0 -17L7.4 -15.3L13.3 -10.6L16.6 -3.8L16.6 3.8L13.3 10.6L7.4 15.3L0 17L-7.4 15.3L-13.3 10.6L-16.6 3.8L-16.6 -3.8L-13.3 -10.6L-7.4 -15.3Z" fill="#009bdf"></path></g><g transform="translate(771 255)"><path d="M0 -21L9.1 -18.9L16.4 -13.1L20.5 -4.7L20.5 4.7L16.4 13.1L9.1 18.9L0 21L-9.1 18.9L-16.4 13.1L-20.5 4.7L-20.5 -4.7L-16.4 -13.1L-9.1 -18.9Z" fill="#009bdf"></path></g><g transform="translate(821 237)"><path d="M0 -10L4.3 -9L7.8 -6.2L9.7 -2.2L9.7 2.2L7.8 6.2L4.3 9L0 10L-4.3 9L-7.8 6.2L-9.7 2.2L-9.7 -2.2L-7.8 -6.2L-4.3 -9Z" fill="#009bdf"></path></g><g transform="translate(489 91)"><path d="M0 -16L6.9 -14.4L12.5 -10L15.6 -3.6L15.6 3.6L12.5 10L6.9 14.4L0 16L-6.9 14.4L-12.5 10L-15.6 3.6L-15.6 -3.6L-12.5 -10L-6.9 -14.4Z" fill="#009bdf"></path></g><g transform="translate(188 457)"><path d="M0 -11L4.8 -9.9L8.6 -6.9L10.7 -2.4L10.7 2.4L8.6 6.9L4.8 9.9L0 11L-4.8 9.9L-8.6 6.9L-10.7 2.4L-10.7 -2.4L-8.6 -6.9L-4.8 -9.9Z" fill="#009bdf"></path></g><g transform="translate(519 356)"><path d="M0 -21L9.1 -18.9L16.4 -13.1L20.5 -4.7L20.5 4.7L16.4 13.1L9.1 18.9L0 21L-9.1 18.9L-16.4 13.1L-20.5 4.7L-20.5 -4.7L-16.4 -13.1L-9.1 -18.9Z" fill="#009bdf"></path></g><g transform="translate(591 418)"><path d="M0 -18L7.8 -16.2L14.1 -11.2L17.5 -4L17.5 4L14.1 11.2L7.8 16.2L0 18L-7.8 16.2L-14.1 11.2L-17.5 4L-17.5 -4L-14.1 -11.2L-7.8 -16.2Z" fill="#009bdf"></path></g><g transform="translate(913 211)"><path d="M0 -10L4.3 -9L7.8 -6.2L9.7 -2.2L9.7 2.2L7.8 6.2L4.3 9L0 10L-4.3 9L-7.8 6.2L-9.7 2.2L-9.7 -2.2L-7.8 -6.2L-4.3 -9Z" fill="#009bdf"></path></g><g transform="translate(21 288)"><path d="M0 -21L9.1 -18.9L16.4 -13.1L20.5 -4.7L20.5 4.7L16.4 13.1L9.1 18.9L0 21L-9.1 18.9L-16.4 13.1L-20.5 4.7L-20.5 -4.7L-16.4 -13.1L-9.1 -18.9Z" fill="#009bdf"></path></g><g transform="translate(20 180)"><path d="M0 -17L7.4 -15.3L13.3 -10.6L16.6 -3.8L16.6 3.8L13.3 10.6L7.4 15.3L0 17L-7.4 15.3L-13.3 10.6L-16.6 3.8L-16.6 -3.8L-13.3 -10.6L-7.4 -15.3Z" fill="#009bdf"></path></g><g transform="translate(919 291)"><path d="M0 -16L6.9 -14.4L12.5 -10L15.6 -3.6L15.6 3.6L12.5 10L6.9 14.4L0 16L-6.9 14.4L-12.5 10L-15.6 3.6L-15.6 -3.6L-12.5 -10L-6.9 -14.4Z" fill="#009bdf"></path></g><g transform="translate(752 35)"><path d="M0 -6L2.6 -5.4L4.7 -3.7L5.8 -1.3L5.8 1.3L4.7 3.7L2.6 5.4L0 6L-2.6 5.4L-4.7 3.7L-5.8 1.3L-5.8 -1.3L-4.7 -3.7L-2.6 -5.4Z" fill="#009bdf"></path></g><g transform="translate(693 179)"><path d="M0 -7L3 -6.3L5.5 -4.4L6.8 -1.6L6.8 1.6L5.5 4.4L3 6.3L0 7L-3 6.3L-5.5 4.4L-6.8 1.6L-6.8 -1.6L-5.5 -4.4L-3 -6.3Z" fill="#009bdf"></path></g><g transform="translate(295 68)"><path d="M0 -18L7.8 -16.2L14.1 -11.2L17.5 -4L17.5 4L14.1 11.2L7.8 16.2L0 18L-7.8 16.2L-14.1 11.2L-17.5 4L-17.5 -4L-14.1 -11.2L-7.8 -16.2Z" fill="#009bdf"></path></g><g transform="translate(464 432)"><path d="M0 -22L9.5 -19.8L17.2 -13.7L21.4 -4.9L21.4 4.9L17.2 13.7L9.5 19.8L0 22L-9.5 19.8L-17.2 13.7L-21.4 4.9L-21.4 -4.9L-17.2 -13.7L-9.5 -19.8Z" fill="#009bdf"></path></g><g transform="translate(179 171)"><path d="M0 -15L6.5 -13.5L11.7 -9.4L14.6 -3.3L14.6 3.3L11.7 9.4L6.5 13.5L0 15L-6.5 13.5L-11.7 9.4L-14.6 3.3L-14.6 -3.3L-11.7 -9.4L-6.5 -13.5Z" fill="#009bdf"></path></g><g transform="translate(646 83)"><path d="M0 -15L6.5 -13.5L11.7 -9.4L14.6 -3.3L14.6 3.3L11.7 9.4L6.5 13.5L0 15L-6.5 13.5L-11.7 9.4L-14.6 3.3L-14.6 -3.3L-11.7 -9.4L-6.5 -13.5Z" fill="#009bdf"></path></g><g transform="translate(219 517)"><path d="M0 -16L6.9 -14.4L12.5 -10L15.6 -3.6L15.6 3.6L12.5 10L6.9 14.4L0 16L-6.9 14.4L-12.5 10L-15.6 3.6L-15.6 -3.6L-12.5 -10L-6.9 -14.4Z" fill="#009bdf"></path></g><g transform="translate(626 9)"><path d="M0 -16L6.9 -14.4L12.5 -10L15.6 -3.6L15.6 3.6L12.5 10L6.9 14.4L0 16L-6.9 14.4L-12.5 10L-15.6 3.6L-15.6 -3.6L-12.5 -10L-6.9 -14.4Z" fill="#009bdf"></path></g><g transform="translate(224 397)"><path d="M0 -16L6.9 -14.4L12.5 -10L15.6 -3.6L15.6 3.6L12.5 10L6.9 14.4L0 16L-6.9 14.4L-12.5 10L-15.6 3.6L-15.6 -3.6L-12.5 -10L-6.9 -14.4Z" fill="#009bdf"></path></g><g transform="translate(270 323)"><path d="M0 -16L6.9 -14.4L12.5 -10L15.6 -3.6L15.6 3.6L12.5 10L6.9 14.4L0 16L-6.9 14.4L-12.5 10L-15.6 3.6L-15.6 -3.6L-12.5 -10L-6.9 -14.4Z" fill="#009bdf"></path></g><g transform="translate(233 275)"><path d="M0 -10L4.3 -9L7.8 -6.2L9.7 -2.2L9.7 2.2L7.8 6.2L4.3 9L0 10L-4.3 9L-7.8 6.2L-9.7 2.2L-9.7 -2.2L-7.8 -6.2L-4.3 -9Z" fill="#009bdf"></path></g><g transform="translate(11 425)"><path d="M0 -13L5.6 -11.7L10.2 -8.1L12.7 -2.9L12.7 2.9L10.2 8.1L5.6 11.7L0 13L-5.6 11.7L-10.2 8.1L-12.7 2.9L-12.7 -2.9L-10.2 -8.1L-5.6 -11.7Z" fill="#009bdf"></path></g><g transform="translate(617 473)"><path d="M0 -18L7.8 -16.2L14.1 -11.2L17.5 -4L17.5 4L14.1 11.2L7.8 16.2L0 18L-7.8 16.2L-14.1 11.2L-17.5 4L-17.5 -4L-14.1 -11.2L-7.8 -16.2Z" fill="#009bdf"></path></g><g transform="translate(619 292)"><path d="M0 -6L2.6 -5.4L4.7 -3.7L5.8 -1.3L5.8 1.3L4.7 3.7L2.6 5.4L0 6L-2.6 5.4L-4.7 3.7L-5.8 1.3L-5.8 -1.3L-4.7 -3.7L-2.6 -5.4Z" fill="#009bdf"></path></g><g transform="translate(584 101)"><path d="M0 -20L8.7 -18L15.6 -12.5L19.5 -4.5L19.5 4.5L15.6 12.5L8.7 18L0 20L-8.7 18L-15.6 12.5L-19.5 4.5L-19.5 -4.5L-15.6 -12.5L-8.7 -18Z" fill="#009bdf"></path></g><g transform="translate(253 151)"><path d="M0 -20L8.7 -18L15.6 -12.5L19.5 -4.5L19.5 4.5L15.6 12.5L8.7 18L0 20L-8.7 18L-15.6 12.5L-19.5 4.5L-19.5 -4.5L-15.6 -12.5L-8.7 -18Z" fill="#009bdf"></path></g><g transform="translate(956 83)"><path d="M0 -14L6.1 -12.6L10.9 -8.7L13.6 -3.1L13.6 3.1L10.9 8.7L6.1 12.6L0 14L-6.1 12.6L-10.9 8.7L-13.6 3.1L-13.6 -3.1L-10.9 -8.7L-6.1 -12.6Z" fill="#009bdf"></path></g><g transform="translate(336 119)"><path d="M0 -19L8.2 -17.1L14.9 -11.8L18.5 -4.2L18.5 4.2L14.9 11.8L8.2 17.1L0 19L-8.2 17.1L-14.9 11.8L-18.5 4.2L-18.5 -4.2L-14.9 -11.8L-8.2 -17.1Z" fill="#009bdf"></path></g><g transform="translate(860 394)"><path d="M0 -15L6.5 -13.5L11.7 -9.4L14.6 -3.3L14.6 3.3L11.7 9.4L6.5 13.5L0 15L-6.5 13.5L-11.7 9.4L-14.6 3.3L-14.6 -3.3L-11.7 -9.4L-6.5 -13.5Z" fill="#009bdf"></path></g><g transform="translate(306 176)"><path d="M0 -19L8.2 -17.1L14.9 -11.8L18.5 -4.2L18.5 4.2L14.9 11.8L8.2 17.1L0 19L-8.2 17.1L-14.9 11.8L-18.5 4.2L-18.5 -4.2L-14.9 -11.8L-8.2 -17.1Z" fill="#009bdf"></path></g><g transform="translate(955 141)"><path d="M0 -8L3.5 -7.2L6.3 -5L7.8 -1.8L7.8 1.8L6.3 5L3.5 7.2L0 8L-3.5 7.2L-6.3 5L-7.8 1.8L-7.8 -1.8L-6.3 -5L-3.5 -7.2Z" fill="#009bdf"></path></g><g transform="translate(21 485)"><path d="M0 -16L6.9 -14.4L12.5 -10L15.6 -3.6L15.6 3.6L12.5 10L6.9 14.4L0 16L-6.9 14.4L-12.5 10L-15.6 3.6L-15.6 -3.6L-12.5 -10L-6.9 -14.4Z" fill="#009bdf"></path></g><g transform="translate(507 44)"><path d="M0 -9L3.9 -8.1L7 -5.6L8.8 -2L8.8 2L7 5.6L3.9 8.1L0 9L-3.9 8.1L-7 5.6L-8.8 2L-8.8 -2L-7 -5.6L-3.9 -8.1Z" fill="#009bdf"></path></g><g transform="translate(903 95)"><path d="M0 -5L2.2 -4.5L3.9 -3.1L4.9 -1.1L4.9 1.1L3.9 3.1L2.2 4.5L0 5L-2.2 4.5L-3.9 3.1L-4.9 1.1L-4.9 -1.1L-3.9 -3.1L-2.2 -4.5Z" fill="#009bdf"></path></g><g transform="translate(959 382)"><path d="M0 -13L5.6 -11.7L10.2 -8.1L12.7 -2.9L12.7 2.9L10.2 8.1L5.6 11.7L0 13L-5.6 11.7L-10.2 8.1L-12.7 2.9L-12.7 -2.9L-10.2 -8.1L-5.6 -11.7Z" fill="#009bdf"></path></g><g transform="translate(487 475)"><path d="M0 -19L8.2 -17.1L14.9 -11.8L18.5 -4.2L18.5 4.2L14.9 11.8L8.2 17.1L0 19L-8.2 17.1L-14.9 11.8L-18.5 4.2L-18.5 -4.2L-14.9 -11.8L-8.2 -17.1Z" fill="#009bdf"></path></g><g transform="translate(842 108)"><path d="M0 -22L9.5 -19.8L17.2 -13.7L21.4 -4.9L21.4 4.9L17.2 13.7L9.5 19.8L0 22L-9.5 19.8L-17.2 13.7L-21.4 4.9L-21.4 -4.9L-17.2 -13.7L-9.5 -19.8Z" fill="#009bdf"></path></g><g transform="translate(712 128)"><path d="M0 -10L4.3 -9L7.8 -6.2L9.7 -2.2L9.7 2.2L7.8 6.2L4.3 9L0 10L-4.3 9L-7.8 6.2L-9.7 2.2L-9.7 -2.2L-7.8 -6.2L-4.3 -9Z" fill="#009bdf"></path></g><g transform="translate(661 267)"><path d="M0 -20L8.7 -18L15.6 -12.5L19.5 -4.5L19.5 4.5L15.6 12.5L8.7 18L0 20L-8.7 18L-15.6 12.5L-19.5 4.5L-19.5 -4.5L-15.6 -12.5L-8.7 -18Z" fill="#009bdf"></path></g><g transform="translate(715 271)"><path d="M0 -8L3.5 -7.2L6.3 -5L7.8 -1.8L7.8 1.8L6.3 5L3.5 7.2L0 8L-3.5 7.2L-6.3 5L-7.8 1.8L-7.8 -1.8L-6.3 -5L-3.5 -7.2Z" fill="#009bdf"></path></g><g transform="translate(400 296)"><path d="M0 -8L3.5 -7.2L6.3 -5L7.8 -1.8L7.8 1.8L6.3 5L3.5 7.2L0 8L-3.5 7.2L-6.3 5L-7.8 1.8L-7.8 -1.8L-6.3 -5L-3.5 -7.2Z" fill="#009bdf"></path></g><g transform="translate(69 294)"><path d="M0 -15L6.5 -13.5L11.7 -9.4L14.6 -3.3L14.6 3.3L11.7 9.4L6.5 13.5L0 15L-6.5 13.5L-11.7 9.4L-14.6 3.3L-14.6 -3.3L-11.7 -9.4L-6.5 -13.5Z" fill="#009bdf"></path></g><g transform="translate(524 420)"><path d="M0 -20L8.7 -18L15.6 -12.5L19.5 -4.5L19.5 4.5L15.6 12.5L8.7 18L0 20L-8.7 18L-15.6 12.5L-19.5 4.5L-19.5 -4.5L-15.6 -12.5L-8.7 -18Z" fill="#009bdf"></path></g><g transform="translate(576 368)"><path d="M0 -22L9.5 -19.8L17.2 -13.7L21.4 -4.9L21.4 4.9L17.2 13.7L9.5 19.8L0 22L-9.5 19.8L-17.2 13.7L-21.4 4.9L-21.4 -4.9L-17.2 -13.7L-9.5 -19.8Z" fill="#009bdf"></path></g><g transform="translate(129 318)"><path d="M0 -17L7.4 -15.3L13.3 -10.6L16.6 -3.8L16.6 3.8L13.3 10.6L7.4 15.3L0 17L-7.4 15.3L-13.3 10.6L-16.6 3.8L-16.6 -3.8L-13.3 -10.6L-7.4 -15.3Z" fill="#009bdf"></path></g><g transform="translate(958 262)"><path d="M0 -8L3.5 -7.2L6.3 -5L7.8 -1.8L7.8 1.8L6.3 5L3.5 7.2L0 8L-3.5 7.2L-6.3 5L-7.8 1.8L-7.8 -1.8L-6.3 -5L-3.5 -7.2Z" fill="#009bdf"></path></g><g transform="translate(318 417)"><path d="M0 -8L3.5 -7.2L6.3 -5L7.8 -1.8L7.8 1.8L6.3 5L3.5 7.2L0 8L-3.5 7.2L-6.3 5L-7.8 1.8L-7.8 -1.8L-6.3 -5L-3.5 -7.2Z" fill="#009bdf"></path></g><g transform="translate(695 385)"><path d="M0 -13L5.6 -11.7L10.2 -8.1L12.7 -2.9L12.7 2.9L10.2 8.1L5.6 11.7L0 13L-5.6 11.7L-10.2 8.1L-12.7 2.9L-12.7 -2.9L-10.2 -8.1L-5.6 -11.7Z" fill="#009bdf"></path></g><g transform="translate(5 360)"><path d="M0 -12L5.2 -10.8L9.4 -7.5L11.7 -2.7L11.7 2.7L9.4 7.5L5.2 10.8L0 12L-5.2 10.8L-9.4 7.5L-11.7 2.7L-11.7 -2.7L-9.4 -7.5L-5.2 -10.8Z" fill="#009bdf"></path></g><g transform="translate(794 408)"><path d="M0 -19L8.2 -17.1L14.9 -11.8L18.5 -4.2L18.5 4.2L14.9 11.8L8.2 17.1L0 19L-8.2 17.1L-14.9 11.8L-18.5 4.2L-18.5 -4.2L-14.9 -11.8L-8.2 -17.1Z" fill="#009bdf"></path></g><g transform="translate(478 381)"><path d="M0 -19L8.2 -17.1L14.9 -11.8L18.5 -4.2L18.5 4.2L14.9 11.8L8.2 17.1L0 19L-8.2 17.1L-14.9 11.8L-18.5 4.2L-18.5 -4.2L-14.9 -11.8L-8.2 -17.1Z" fill="#009bdf"></path></g><g transform="translate(90 470)"><path d="M0 -13L5.6 -11.7L10.2 -8.1L12.7 -2.9L12.7 2.9L10.2 8.1L5.6 11.7L0 13L-5.6 11.7L-10.2 8.1L-12.7 2.9L-12.7 -2.9L-10.2 -8.1L-5.6 -11.7Z" fill="#009bdf"></path></g><g transform="translate(419 119)"><path d="M0 -7L3 -6.3L5.5 -4.4L6.8 -1.6L6.8 1.6L5.5 4.4L3 6.3L0 7L-3 6.3L-5.5 4.4L-6.8 1.6L-6.8 -1.6L-5.5 -4.4L-3 -6.3Z" fill="#009bdf"></path></g><g transform="translate(519 297)"><path d="M0 -18L7.8 -16.2L14.1 -11.2L17.5 -4L17.5 4L14.1 11.2L7.8 16.2L0 18L-7.8 16.2L-14.1 11.2L-17.5 4L-17.5 -4L-14.1 -11.2L-7.8 -16.2Z" fill="#009bdf"></path></g><g transform="translate(473 240)"><path d="M0 -14L6.1 -12.6L10.9 -8.7L13.6 -3.1L13.6 3.1L10.9 8.7L6.1 12.6L0 14L-6.1 12.6L-10.9 8.7L-13.6 3.1L-13.6 -3.1L-10.9 -8.7L-6.1 -12.6Z" fill="#009bdf"></path></g><g transform="translate(401 205)"><path d="M0 -14L6.1 -12.6L10.9 -8.7L13.6 -3.1L13.6 3.1L10.9 8.7L6.1 12.6L0 14L-6.1 12.6L-10.9 8.7L-13.6 3.1L-13.6 -3.1L-10.9 -8.7L-6.1 -12.6Z" fill="#009bdf"></path></g><g transform="translate(433 168)"><path d="M0 -5L2.2 -4.5L3.9 -3.1L4.9 -1.1L4.9 1.1L3.9 3.1L2.2 4.5L0 5L-2.2 4.5L-3.9 3.1L-4.9 1.1L-4.9 -1.1L-3.9 -3.1L-2.2 -4.5Z" fill="#009bdf"></path></g><g transform="translate(667 485)"><path d="M0 -7L3 -6.3L5.5 -4.4L6.8 -1.6L6.8 1.6L5.5 4.4L3 6.3L0 7L-3 6.3L-5.5 4.4L-6.8 1.6L-6.8 -1.6L-5.5 -4.4L-3 -6.3Z" fill="#009bdf"></path></g><g transform="translate(956 476)"><path d="M0 -21L9.1 -18.9L16.4 -13.1L20.5 -4.7L20.5 4.7L16.4 13.1L9.1 18.9L0 21L-9.1 18.9L-16.4 13.1L-20.5 4.7L-20.5 -4.7L-16.4 -13.1L-9.1 -18.9Z" fill="#009bdf"></path></g><g transform="translate(320 1)"><path d="M0 -11L4.8 -9.9L8.6 -6.9L10.7 -2.4L10.7 2.4L8.6 6.9L4.8 9.9L0 11L-4.8 9.9L-8.6 6.9L-10.7 2.4L-10.7 -2.4L-8.6 -6.9L-4.8 -9.9Z" fill="#009bdf"></path></g><g transform="translate(649 220)"><path d="M0 -21L9.1 -18.9L16.4 -13.1L20.5 -4.7L20.5 4.7L16.4 13.1L9.1 18.9L0 21L-9.1 18.9L-16.4 13.1L-20.5 4.7L-20.5 -4.7L-16.4 -13.1L-9.1 -18.9Z" fill="#009bdf"></path></g><g transform="translate(694 78)"><path d="M0 -7L3 -6.3L5.5 -4.4L6.8 -1.6L6.8 1.6L5.5 4.4L3 6.3L0 7L-3 6.3L-5.5 4.4L-6.8 1.6L-6.8 -1.6L-5.5 -4.4L-3 -6.3Z" fill="#009bdf"></path></g><g transform="translate(895 468)"><path d="M0 -16L6.9 -14.4L12.5 -10L15.6 -3.6L15.6 3.6L12.5 10L6.9 14.4L0 16L-6.9 14.4L-12.5 10L-15.6 3.6L-15.6 -3.6L-12.5 -10L-6.9 -14.4Z" fill="#009bdf"></path></g></g></svg>