<svg id="visual" viewBox="0 0 960 540" width="960" height="540" xmlns="http://www.w3.org/2000/svg" xmlns:xlink="http://www.w3.org/1999/xlink" version="1.1"><rect x="0" y="0" width="960" height="540" fill="#00557a"></rect><g fill="#009bdf"><path d="M0 -67L15 -20.7L63.7 -20.7L24.3 7.9L39.4 54.2L0 25.6L-39.4 54.2L-24.3 7.9L-63.7 -20.7L-15 -20.7Z" transform="translate(200 214)"></path><path d="M0 -50L11.2 -15.5L47.6 -15.5L18.2 5.9L29.4 40.5L0 19.1L-29.4 40.5L-18.2 5.9L-47.6 -15.5L-11.2 -15.5Z" transform="translate(171 45)"></path><path d="M0 -50L11.2 -15.5L47.6 -15.5L18.2 5.9L29.4 40.5L0 19.1L-29.4 40.5L-18.2 5.9L-47.6 -15.5L-11.2 -15.5Z" transform="translate(883 157)"></path><path d="M0 -61.3L13.8 -19L58.3 -19L22.3 7.2L36.1 49.6L0 23.4L-36.1 49.6L-22.3 7.2L-58.3 -19L-13.8 -19Z" transform="translate(859 391)"></path><path d="M0 -61.3L13.8 -19L58.3 -19L22.3 7.2L36.1 49.6L0 23.4L-36.1 49.6L-22.3 7.2L-58.3 -19L-13.8 -19Z" transform="translate(706 129)"></path><path d="M0 -53.8L12.1 -16.6L51.2 -16.6L19.5 6.4L31.6 43.5L0 20.5L-31.6 43.5L-19.5 6.4L-51.2 -16.6L-12.1 -16.6Z" transform="translate(19 452)"></path></g></svg>